<svg xmlns="http://www.w3.org/2000/svg" width="71.164" height="50" viewBox="0 0 71.164 50">
  <g id="Group_12" data-name="Group 12" transform="translate(-126.117 -222.059)">
    <g id="Group_2" data-name="Group 2" transform="translate(126.117 222.973)">
      <path id="Path_1" data-name="Path 1" d="M244.056,282.643h-9.922V250.2h9.922Z" transform="translate(-173.741 -234.595)" fill="#1c2b56"/>
      <g id="Group_1" data-name="Group 1">
        <path id="Path_2" data-name="Path 2" d="M150.924,255.344a17.2,17.2,0,0,1,4.036-11.588,12.322,12.322,0,0,0-1.457-2.176q-3.1-3.683-9.172-3.683-5.353,0-8.291,2.986V223.694h-9.923v48.048h9.923V252.363a5.692,5.692,0,0,1,1.6-3.816,5.037,5.037,0,0,1,3.753-1.493,4.921,4.921,0,0,1,3.95,1.559,6.155,6.155,0,0,1,1.339,4.148v18.981H156.6v-3.336c-.206-.185-.419-.356-.62-.554A16.747,16.747,0,0,1,150.924,255.344Z" transform="translate(-126.117 -223.694)" fill="#4a72b7"/>
        <path id="Path_3" data-name="Path 3" d="M197.823,268.986a6.684,6.684,0,0,1-6.724,4.831,7.375,7.375,0,0,1-5.385-2.154,7.869,7.869,0,0,1-2.187-5.875,8.1,8.1,0,0,1,2.121-5.941,7.158,7.158,0,0,1,5.32-2.154,6.479,6.479,0,0,1,4.309,1.371,6.834,6.834,0,0,1,2.219,3.46l8.879-2.676a14.629,14.629,0,0,0-5.223-8.03,16.016,16.016,0,0,0-10.38-3.263,16.658,16.658,0,0,0-12.175,4.863c-.318.313-.606.642-.893.972a14.882,14.882,0,0,1,1.644,7.162v17.086a17.174,17.174,0,0,0,11.75,4.319,15.633,15.633,0,0,0,10.217-3.329,14.861,14.861,0,0,0,5.255-7.964Z" transform="translate(-148.861 -233.87)" fill="#ee3d6e"/>
        <path id="Path_4" data-name="Path 4" d="M174.522,258.99a16.755,16.755,0,0,0-4.036,11.4,16.337,16.337,0,0,0,5.06,12.3c.2.194.414.362.62.545V266.152A14.882,14.882,0,0,0,174.522,258.99Z" transform="translate(-145.679 -238.472)" fill="#1c2b56"/>
      </g>
    </g>
    <path id="Path_5" data-name="Path 5" d="M234.313,231.982a5.832,5.832,0,0,1,0-8.226,5.527,5.527,0,0,1,4.047-1.7,5.715,5.715,0,0,1,4.146,1.7,5.755,5.755,0,0,1,0,8.226,5.709,5.709,0,0,1-4.146,1.7A5.521,5.521,0,0,1,234.313,231.982Z" transform="translate(-46.955 0)" fill="#1c2b56"/>
    <g id="Group_4" data-name="Group 4" transform="translate(140.972 223.089)">
      <g id="Group_3" data-name="Group 3" transform="translate(0)">
        <path id="Path_6" data-name="Path 6" d="M159.371,227.17a3.263,3.263,0,0,1-.344,1.566,2.84,2.84,0,0,1-.929,1.026,4.1,4.1,0,0,1-1.349.569,6.892,6.892,0,0,1-1.588.18h-1.274v4h-2.563V223.9h3.9a7.336,7.336,0,0,1,1.626.173,3.84,3.84,0,0,1,1.318.555,2.689,2.689,0,0,1,.885,1A3.322,3.322,0,0,1,159.371,227.17Zm-2.562.015a1.146,1.146,0,0,0-.15-.614,1.052,1.052,0,0,0-.4-.375,1.727,1.727,0,0,0-.577-.179,4.793,4.793,0,0,0-.667-.045h-1.124v2.5h1.079a3.833,3.833,0,0,0,.691-.06,1.857,1.857,0,0,0,.592-.21,1.128,1.128,0,0,0,.411-.4A1.183,1.183,0,0,0,156.809,227.185Z" transform="translate(-151.323 -223.902)" fill="#a7bab9"/>
        <path id="Path_7" data-name="Path 7" d="M168.479,234.513V223.9h7.134v2.159h-4.661v2.008h4.407v2.053h-4.407v2.2h4.931v2.188Z" transform="translate(-158.887 -223.902)" fill="#a7bab9"/>
        <path id="Path_8" data-name="Path 8" d="M191.943,234.513l-4.27-6.939h-.046l.06,6.939H185.2V223.9h2.922l4.256,6.925h.045l-.06-6.925h2.488v10.611Z" transform="translate(-166.259 -223.902)" fill="#a7bab9"/>
        <path id="Path_9" data-name="Path 9" d="M213.121,234.513l-4.272-6.939H208.8l.059,6.939h-2.487V223.9H209.3l4.256,6.925h.045l-.06-6.925h2.487v10.611Z" transform="translate(-175.596 -223.902)" fill="#a7bab9"/>
      </g>
    </g>
  </g>
</svg>
